<svg xmlns="http://www.w3.org/2000/svg" width="512" height="512"><g transform="translate(0 -540.362)"><circle r="246" cy="796.36" cx="256" fill="#dd0076"/><path d="M202.3 718.36c-43.7.74-61.1 37.03-61.62 60.9-9.7 50.76 87.27 130.3 125.32 169.1 38.05-38.8 135-118.27 125.32-169.04-.52-23.86-17.9-60.22-61.62-60.96-20.15.55-50.5 7.2-63.7 45.42-13.2-38.2-43.55-44.87-63.7-45.42z" opacity=".15"/><path d="M192.3 698.36c-43.7.74-61.1 37.03-61.62 60.9-9.7 50.76 87.27 130.3 125.32 169.1 38.05-38.8 135-118.27 125.32-169.04-.52-23.85-17.9-60.22-61.62-60.96-20.15.55-50.5 7.2-63.7 45.43-13.2-38.25-43.55-44.9-63.7-45.46z" fill="#fff"/></g></svg>
